<svg version="1.1" viewBox="0.0 0.0 688.989501312336 292.56955380577426" fill="none" stroke="none" stroke-linecap="square" stroke-miterlimit="10" xmlns:xlink="http://www.w3.org/1999/xlink" xmlns="http://www.w3.org/2000/svg"><clipPath id="p.0"><path d="m0 0l688.9895 0l0 292.56955l-688.9895 0l0 -292.56955z" clip-rule="nonzero"/></clipPath><g clip-path="url(#p.0)"><path fill="#000000" fill-opacity="0.0" d="m0 0l688.9895 0l0 292.56955l-688.9895 0z" fill-rule="evenodd"/><path fill="#434343" d="m636.6011 135.33333l17.606262 0l0 144.85039l-17.606262 0z" fill-rule="evenodd"/><path stroke="#000000" stroke-width="4.0" stroke-linejoin="round" stroke-linecap="butt" d="m636.6011 135.33333l17.606262 0l0 144.85039l-17.606262 0z" fill-rule="evenodd"/><path fill="#434343" d="m553.3307 58.90026l17.606323 0l0 144.8504l-17.606323 0z" fill-rule="evenodd"/><path stroke="#000000" stroke-width="4.0" stroke-linejoin="round" stroke-linecap="butt" d="m553.3307 58.90026l17.606323 0l0 144.8504l-17.606323 0z" fill-rule="evenodd"/><path fill="#434343" d="m25.17323 58.90026l17.606297 0l0 144.8504l-17.606297 0z" fill-rule="evenodd"/><path stroke="#000000" stroke-width="4.0" stroke-linejoin="round" stroke-linecap="butt" d="m25.17323 58.90026l17.606297 0l0 144.8504l-17.606297 0z" fill-rule="evenodd"/><path fill="#000000" d="m11.341777 44.094387l545.2541 -5.7611694l97.61206 97.60368l-545.2541 5.7611694z" fill-rule="evenodd"/><path stroke="#000000" stroke-width="4.0" stroke-linejoin="round" stroke-linecap="butt" d="m11.341777 44.094387l545.2541 -5.7611694l97.61206 97.60368l-545.2541 5.7611694z" fill-rule="evenodd"/><path fill="#1155cc" d="m679.01953 106.87799l0 0c-2.94635 -2.9463425 -11.623962 0.94729614 -19.38208 8.696678c-7.7580566 7.749382 -11.658752 16.419975 -8.712402 19.36631l-98.74768 -98.74768c-2.94635 -2.9463387 0.9543457 -11.616934 8.712402 -19.366316c7.7581177 -7.749381 16.43573 -11.643015 19.38208 -8.696675z" fill-rule="evenodd"/><path fill="#7099e0" d="m679.01953 106.87799l0 0c2.94635 2.9463425 -0.9543457 11.616936 -8.712402 19.366318c-7.7581177 7.7493744 -16.43573 11.643021 -19.38208 8.696671l0 0c-2.94635 -2.9463348 0.9543457 -11.616928 8.712402 -19.36631c7.7581177 -7.749382 16.43573 -11.643021 19.38208 -8.696678z" fill-rule="evenodd"/><path fill="#000000" fill-opacity="0.0" d="m650.92505 134.94098l0 0c-2.94635 -2.9463348 0.9543457 -11.616928 8.712402 -19.36631c7.7581177 -7.749382 16.43573 -11.643021 19.38208 -8.696678l0 0c2.94635 2.9463425 -0.9543457 11.616936 -8.712402 19.366318c-7.7581177 7.7493744 -16.43573 11.643021 -19.38208 8.696671l-98.74768 -98.74768c-2.94635 -2.9463387 0.9543457 -11.616934 8.712402 -19.366316c7.7581177 -7.749381 16.43573 -11.643015 19.38208 -8.696675l98.74768 98.74768" fill-rule="evenodd"/><path stroke="#000000" stroke-width="4.0" stroke-linejoin="round" stroke-linecap="butt" d="m650.92505 134.94098l0 0c-2.94635 -2.9463348 0.9543457 -11.616928 8.712402 -19.36631c7.7581177 -7.749382 16.43573 -11.643021 19.38208 -8.696678l0 0c2.94635 2.9463425 -0.9543457 11.616936 -8.712402 19.366318c-7.7581177 7.7493744 -16.43573 11.643021 -19.38208 8.696671l-98.74768 -98.74768c-2.94635 -2.9463387 0.9543457 -11.616934 8.712402 -19.366316c7.7581177 -7.749381 16.43573 -11.643015 19.38208 -8.696675l98.74768 98.74768" fill-rule="evenodd"/><path fill="#1155cc" d="m272.34763 111.20608l0 0c-2.94635 -2.9463425 -11.623993 0.9472885 -19.382065 8.696671c-7.758087 7.749382 -11.658768 16.419975 -8.712433 19.366325l-98.74768 -98.74768c-2.9463348 -2.9463425 0.9543457 -11.616938 8.712433 -19.366318c7.758072 -7.749382 16.435715 -11.643016 19.382065 -8.696676z" fill-rule="evenodd"/><path fill="#7099e0" d="m272.34763 111.20608l0 0c2.94635 2.9463425 -0.9543457 11.616936 -8.712433 19.36631c-7.758072 7.7493896 -16.435715 11.643021 -19.382065 8.696686l0 0c-2.9463348 -2.94635 0.9543457 -11.616943 8.712433 -19.366325c7.758072 -7.749382 16.435715 -11.643013 19.382065 -8.696671z" fill-rule="evenodd"/><path fill="#000000" fill-opacity="0.0" d="m244.25313 139.26907l0 0c-2.9463348 -2.94635 0.9543457 -11.616943 8.712433 -19.366325c7.758072 -7.749382 16.435715 -11.643013 19.382065 -8.696671l0 0c2.94635 2.9463425 -0.9543457 11.616936 -8.712433 19.36631c-7.758072 7.7493896 -16.435715 11.643021 -19.382065 8.696686l-98.74768 -98.74768c-2.9463348 -2.9463425 0.9543457 -11.616938 8.712433 -19.366318c7.758072 -7.749382 16.435715 -11.643016 19.382065 -8.696676l98.74768 98.74768" fill-rule="evenodd"/><path stroke="#000000" stroke-width="4.0" stroke-linejoin="round" stroke-linecap="butt" d="m244.25313 139.26907l0 0c-2.9463348 -2.94635 0.9543457 -11.616943 8.712433 -19.366325c7.758072 -7.749382 16.435715 -11.643013 19.382065 -8.696671l0 0c2.94635 2.9463425 -0.9543457 11.616936 -8.712433 19.36631c-7.758072 7.7493896 -16.435715 11.643021 -19.382065 8.696686l-98.74768 -98.74768c-2.9463348 -2.9463425 0.9543457 -11.616938 8.712433 -19.366318c7.758072 -7.749382 16.435715 -11.643016 19.382065 -8.696676l98.74768 98.74768" fill-rule="evenodd"/><path fill="#1155cc" d="m410.17178 109.54729l0 0c-2.94635 -2.9463425 -11.623993 0.9472885 -19.38208 8.696671c-7.758087 7.749382 -11.658752 16.419983 -8.712433 19.366318l-98.74768 -98.74768c-2.9463196 -2.9463387 0.9543457 -11.616936 8.712433 -19.366318c7.758087 -7.74938 16.43573 -11.643015 19.38208 -8.696674z" fill-rule="evenodd"/><path fill="#7099e0" d="m410.17178 109.54729l0 0c2.9463196 2.9463348 -0.9543457 11.616936 -8.712433 19.366318c-7.758087 7.7493744 -16.43573 11.643005 -19.38208 8.696671l0 0c-2.9463196 -2.9463348 0.9543457 -11.616936 8.712433 -19.366318c7.758087 -7.749382 16.43573 -11.643013 19.38208 -8.696671z" fill-rule="evenodd"/><path fill="#000000" fill-opacity="0.0" d="m382.07727 137.61028l0 0c-2.9463196 -2.9463348 0.9543457 -11.616936 8.712433 -19.366318c7.758087 -7.749382 16.43573 -11.643013 19.38208 -8.696671l0 0c2.9463196 2.9463348 -0.9543457 11.616936 -8.712433 19.366318c-7.758087 7.7493744 -16.43573 11.643005 -19.38208 8.696671l-98.74768 -98.74768c-2.9463196 -2.9463387 0.9543457 -11.616936 8.712433 -19.366318c7.758087 -7.74938 16.43573 -11.643015 19.38208 -8.696674l98.74768 98.74768" fill-rule="evenodd"/><path stroke="#000000" stroke-width="4.0" stroke-linejoin="round" stroke-linecap="butt" d="m382.07727 137.61028l0 0c-2.9463196 -2.9463348 0.9543457 -11.616936 8.712433 -19.366318c7.758087 -7.749382 16.43573 -11.643013 19.38208 -8.696671l0 0c2.9463196 2.9463348 -0.9543457 11.616936 -8.712433 19.366318c-7.758087 7.7493744 -16.43573 11.643005 -19.38208 8.696671l-98.74768 -98.74768c-2.9463196 -2.9463387 0.9543457 -11.616936 8.712433 -19.366318c7.758087 -7.74938 16.43573 -11.643015 19.38208 -8.696674l98.74768 98.74768" fill-rule="evenodd"/><path fill="#1155cc" d="m542.2951 108.28744l0 0c-2.946289 -2.9463348 -11.623962 0.94729614 -19.382019 8.696678c-7.7581177 7.749382 -11.658783 16.419983 -8.712463 19.366318l-98.74765 -98.74768c-2.94635 -2.9463425 0.9543457 -11.616936 8.712402 -19.366318c7.758087 -7.749381 16.43573 -11.643015 19.38208 -8.696674z" fill-rule="evenodd"/><path fill="#7099e0" d="m542.2951 108.28744l0 0c2.94635 2.9463425 -0.9543457 11.616936 -8.712402 19.366318c-7.7580566 7.749382 -16.43573 11.643013 -19.38208 8.696678l0 0c-2.9463196 -2.9463348 0.9543457 -11.616936 8.712463 -19.366318c7.7580566 -7.749382 16.43573 -11.643013 19.382019 -8.696678z" fill-rule="evenodd"/><path fill="#000000" fill-opacity="0.0" d="m514.2006 136.35043l0 0c-2.9463196 -2.9463348 0.9543457 -11.616936 8.712463 -19.366318c7.7580566 -7.749382 16.43573 -11.643013 19.382019 -8.696678l0 0c2.94635 2.9463425 -0.9543457 11.616936 -8.712402 19.366318c-7.7580566 7.749382 -16.43573 11.643013 -19.38208 8.696678l-98.74765 -98.74768c-2.94635 -2.9463425 0.9543457 -11.616936 8.712402 -19.366318c7.758087 -7.749381 16.43573 -11.643015 19.38208 -8.696674l98.74765 98.74768" fill-rule="evenodd"/><path stroke="#000000" stroke-width="4.0" stroke-linejoin="round" stroke-linecap="butt" d="m514.2006 136.35043l0 0c-2.9463196 -2.9463348 0.9543457 -11.616936 8.712463 -19.366318c7.7580566 -7.749382 16.43573 -11.643013 19.382019 -8.696678l0 0c2.94635 2.9463425 -0.9543457 11.616936 -8.712402 19.366318c-7.7580566 7.749382 -16.43573 11.643013 -19.38208 8.696678l-98.74765 -98.74768c-2.94635 -2.9463425 0.9543457 -11.616936 8.712402 -19.366318c7.758087 -7.749381 16.43573 -11.643015 19.38208 -8.696674l98.74765 98.74768" fill-rule="evenodd"/><path fill="#1155cc" d="m33.932327 12.852916l545.2541 -5.7611666l97.61206 97.60368l-545.2541 5.7611694z" fill-rule="evenodd"/><path stroke="#000000" stroke-width="4.0" stroke-linejoin="round" stroke-linecap="butt" d="m33.932327 12.852916l545.2541 -5.7611666l97.61206 97.60368l-545.2541 5.7611694z" fill-rule="evenodd"/><path fill="#1155cc" d="m134.83582 112.80975l0 0c-2.94635 -2.9463425 -11.623993 0.94729614 -19.382065 8.696671c-7.7580795 7.7493896 -11.658768 16.419983 -8.712425 19.366318l-98.81068 -98.81067c-2.9463406 -2.9463425 0.9543443 -11.616938 8.712423 -19.366318c7.7580795 -7.749382 16.435726 -11.643016 19.382065 -8.696675z" fill-rule="evenodd"/><path fill="#7099e0" d="m134.83582 112.80975l0 0c2.9463348 2.9463425 -0.9543457 11.616936 -8.712425 19.366318c-7.7580795 7.7493744 -16.435722 11.643021 -19.382065 8.696671l0 0c-2.9463425 -2.9463348 0.9543457 -11.616928 8.712425 -19.366318c7.758072 -7.7493744 16.435715 -11.643013 19.382065 -8.696671z" fill-rule="evenodd"/><path fill="#000000" fill-opacity="0.0" d="m106.741325 140.87274l0 0c-2.9463425 -2.9463348 0.9543457 -11.616928 8.712425 -19.366318c7.758072 -7.7493744 16.435715 -11.643013 19.382065 -8.696671l0 0c2.9463348 2.9463425 -0.9543457 11.616936 -8.712425 19.366318c-7.7580795 7.7493744 -16.435722 11.643021 -19.382065 8.696671l-98.81068 -98.81067c-2.9463406 -2.9463425 0.9543443 -11.616938 8.712423 -19.366318c7.7580795 -7.749382 16.435726 -11.643016 19.382065 -8.696675l98.81068 98.81068" fill-rule="evenodd"/><path stroke="#000000" stroke-width="4.0" stroke-linejoin="round" stroke-linecap="butt" d="m106.741325 140.87274l0 0c-2.9463425 -2.9463348 0.9543457 -11.616928 8.712425 -19.366318c7.758072 -7.7493744 16.435715 -11.643013 19.382065 -8.696671l0 0c2.9463348 2.9463425 -0.9543457 11.616936 -8.712425 19.366318c-7.7580795 7.7493744 -16.435722 11.643021 -19.382065 8.696671l-98.81068 -98.81067c-2.9463406 -2.9463425 0.9543443 -11.616938 8.712423 -19.366318c7.7580795 -7.749382 16.435726 -11.643016 19.382065 -8.696675l98.81068 98.81068" fill-rule="evenodd"/><path fill="#434343" d="m109.08662 141.68504l17.6063 0l0 144.85039l-17.6063 0z" fill-rule="evenodd"/><path stroke="#000000" stroke-width="4.0" stroke-linejoin="round" stroke-linecap="butt" d="m109.08662 141.68504l17.6063 0l0 144.85039l-17.6063 0z" fill-rule="evenodd"/><path fill="#434343" d="m18.070465 203.75102l0 -15.905502l0 0c0 -8.784378 7.1211414 -15.905518 15.905514 -15.905518c8.78437 0 15.90551 7.1211395 15.90551 15.905518l0 15.905502z" fill-rule="evenodd"/><path stroke="#000000" stroke-width="4.0" stroke-linejoin="round" stroke-linecap="butt" d="m18.070465 203.75102l0 -15.905502l0 0c0 -8.784378 7.1211414 -15.905518 15.905514 -15.905518c8.78437 0 15.90551 7.1211395 15.90551 15.905518l0 15.905502z" fill-rule="evenodd"/><path fill="#434343" d="m101.98385 286.5358l0 -15.905518l0 0c0 -8.784363 7.1211395 -15.905502 15.905518 -15.905502c8.78437 0 15.90551 7.1211395 15.90551 15.905502l0 15.905518z" fill-rule="evenodd"/><path stroke="#000000" stroke-width="4.0" stroke-linejoin="round" stroke-linecap="butt" d="m101.98385 286.5358l0 -15.905518l0 0c0 -8.784363 7.1211395 -15.905502 15.905518 -15.905502c8.78437 0 15.90551 7.1211395 15.90551 15.905502l0 15.905518z" fill-rule="evenodd"/><path fill="#434343" d="m629.4983 286.5358l0 -15.905518l0 0c0 -8.784363 7.121155 -15.905502 15.905518 -15.905502c8.784363 0 15.905518 7.1211395 15.905518 15.905502l0 15.905518z" fill-rule="evenodd"/><path stroke="#000000" stroke-width="4.0" stroke-linejoin="round" stroke-linecap="butt" d="m629.4983 286.5358l0 -15.905518l0 0c0 -8.784363 7.121155 -15.905502 15.905518 -15.905502c8.784363 0 15.905518 7.1211395 15.905518 15.905502l0 15.905518z" fill-rule="evenodd"/><path fill="#434343" d="m546.22797 203.75102l0 -15.905502l0 0c0 -8.784378 7.1210938 -15.905518 15.905518 -15.905518c8.784363 0 15.905457 7.1211395 15.905457 15.905518l0 15.905502z" fill-rule="evenodd"/><path stroke="#000000" stroke-width="4.0" stroke-linejoin="round" stroke-linecap="butt" d="m546.22797 203.75102l0 -15.905502l0 0c0 -8.784378 7.1210938 -15.905518 15.905518 -15.905518c8.784363 0 15.905457 7.1211395 15.905457 15.905518l0 15.905502z" fill-rule="evenodd"/></g></svg>