<svg version="1.1" viewBox="0.0 0.0 274.95800524934384 270.88188976377955" fill="none" stroke="none" stroke-linecap="square" stroke-miterlimit="10" xmlns:xlink="http://www.w3.org/1999/xlink" xmlns="http://www.w3.org/2000/svg"><clipPath id="p.0"><path d="m0 0l274.958 0l0 270.8819l-274.958 0l0 -270.8819z" clip-rule="nonzero"/></clipPath><g clip-path="url(#p.0)"><path fill="#000000" fill-opacity="0.0" d="m0 0l274.958 0l0 270.8819l-274.958 0z" fill-rule="evenodd"/><path fill="#ff6d00" d="m52.135532 173.68759l127.20122 -34.087204l0 0c16.663712 -4.465515 35.031754 10.051376 41.02617 32.424393c5.9944153 22.373001 -2.6547394 44.12993 -19.31845 48.595444l-127.20122 34.087204l0 0c-16.6637 4.465515 -35.03174 -10.051376 -41.026157 -32.424377c-5.994421 -22.373016 2.6547394 -44.129944 19.318443 -48.59546z" fill-rule="evenodd"/><path stroke="#000000" stroke-width="4.0" stroke-linejoin="round" stroke-linecap="butt" d="m52.135532 173.68759l127.20122 -34.087204l0 0c16.663712 -4.465515 35.031754 10.051376 41.02617 32.424393c5.9944153 22.373001 -2.6547394 44.12993 -19.31845 48.595444l-127.20122 34.087204l0 0c-16.6637 4.465515 -35.03174 -10.051376 -41.026157 -32.424377c-5.994421 -22.373016 2.6547394 -44.129944 19.318443 -48.59546z" fill-rule="evenodd"/><path fill="#000000" d="m6.2913384 266.52493l164.75066 0l-32.950134 -28.92389l-98.85039 0z" fill-rule="evenodd"/><path stroke="#000000" stroke-width="4.0" stroke-linejoin="round" stroke-linecap="butt" d="m6.2913384 266.52493l164.75066 0l-32.950134 -28.92389l-98.85039 0z" fill-rule="evenodd"/><path fill="#ff6d00" d="m128.28487 46.154064l67.58226 117.065414l0 0c8.853455 15.335892 5.7444305 33.70627 -6.9441986 41.031387c-12.688644 7.325119 -30.151947 0.8311157 -39.005417 -14.504776l-67.58225 -117.065414l0 0c-8.853455 -15.335888 -5.7444305 -33.706264 6.9441986 -41.031387c12.688637 -7.325121 30.151955 -0.8311157 39.00541 14.504772z" fill-rule="evenodd"/><path stroke="#000000" stroke-width="4.0" stroke-linejoin="round" stroke-linecap="butt" d="m128.28487 46.154064l67.58226 117.065414l0 0c8.853455 15.335892 5.7444305 33.70627 -6.9441986 41.031387c-12.688644 7.325119 -30.151947 0.8311157 -39.005417 -14.504776l-67.58225 -117.065414l0 0c-8.853455 -15.335888 -5.7444305 -33.706264 6.9441986 -41.031387c12.688637 -7.325121 30.151955 -0.8311157 39.00541 14.504772z" fill-rule="evenodd"/><path fill="#ff6d00" d="m104.79798 36.073437l98.08195 -26.285408l0 0c12.848984 -3.4434595 25.574951 2.3836193 28.424225 13.015144c2.8492584 10.631523 -5.257126 22.041553 -18.106125 25.485012l-98.08194 26.285408l0 0c-12.848999 3.4434586 -25.574959 -2.3836212 -28.424225 -13.015144c-2.849266 -10.631527 5.257118 -22.041553 18.106117 -25.485012z" fill-rule="evenodd"/><path stroke="#000000" stroke-width="4.0" stroke-linejoin="round" stroke-linecap="butt" d="m104.79798 36.073437l98.08195 -26.285408l0 0c12.848984 -3.4434595 25.574951 2.3836193 28.424225 13.015144c2.8492584 10.631523 -5.257126 22.041553 -18.106125 25.485012l-98.08194 26.285408l0 0c-12.848999 3.4434586 -25.574959 -2.3836212 -28.424225 -13.015144c-2.849266 -10.631527 5.257118 -22.041553 18.106117 -25.485012z" fill-rule="evenodd"/><path fill="#ff6d00" d="m226.69733 49.759754l-18.220474 -4.8818893l0 0c-10.062881 -2.6961937 -16.034775 -13.0394745 -13.338577 -23.102364c2.6961975 -10.062889 13.0394745 -16.034775 23.102371 -13.338582l18.220459 4.8818893z" fill-rule="evenodd"/><path stroke="#000000" stroke-width="4.0" stroke-linejoin="round" stroke-linecap="butt" d="m226.69733 49.759754l-18.220474 -4.8818893l0 0c-10.062881 -2.6961937 -16.034775 -13.0394745 -13.338577 -23.102364c2.6961975 -10.062889 13.0394745 -16.034775 23.102371 -13.338582l18.220459 4.8818893z" fill-rule="evenodd"/><path fill="#000000" d="m250.78789 72.067474l0 0c-18.029709 -4.827057 -28.732574 -23.356125 -23.905518 -41.385826c4.827057 -18.029705 23.356125 -28.732569 41.38582 -23.905514l-4.370056 16.322834c-9.014862 -2.4135284 -18.279388 2.9379025 -20.692917 11.952755c-2.4135284 9.014854 2.9378967 18.279385 11.952744 20.692913z" fill-rule="evenodd"/><path stroke="#000000" stroke-width="4.0" stroke-linejoin="round" stroke-linecap="butt" d="m250.78789 72.067474l0 0c-18.029709 -4.827057 -28.732574 -23.356125 -23.905518 -41.385826c4.827057 -18.029705 23.356125 -28.732569 41.38582 -23.905514l-4.370056 16.322834c-9.014862 -2.4135284 -18.279388 2.9379025 -20.692917 11.952755c-2.4135284 9.014854 2.9378967 18.279385 11.952744 20.692913z" fill-rule="evenodd"/></g></svg>