<svg version="1.1" viewBox="0.0 0.0 283.8346456692913 327.7795275590551" fill="none" stroke="none" stroke-linecap="square" stroke-miterlimit="10" xmlns:xlink="http://www.w3.org/1999/xlink" xmlns="http://www.w3.org/2000/svg"><clipPath id="p.0"><path d="m0 0l283.83466 0l0 327.77954l-283.83466 0l0 -327.77954z" clip-rule="nonzero"/></clipPath><g clip-path="url(#p.0)"><path fill="#000000" fill-opacity="0.0" d="m0 0l283.83466 0l0 327.77954l-283.83466 0z" fill-rule="evenodd"/><path fill="#000000" d="m22.704725 233.68767l238.42519 0l0 24.18898l-238.42519 0z" fill-rule="evenodd"/><path stroke="#000000" stroke-width="4.0" stroke-linejoin="round" stroke-linecap="butt" d="m22.704725 233.68767l238.42519 0l0 24.18898l-238.42519 0z" fill-rule="evenodd"/><path fill="#000000" d="m22.704725 255.6798l0 0c0 -29.936447 53.3733 -54.204727 119.2126 -54.204727l0 0c65.839294 0 119.212585 24.26828 119.212585 54.204727l0 0c0 29.936447 -53.37329 54.204727 -119.212585 54.204727l0 0c-65.8393 0 -119.2126 -24.26828 -119.2126 -54.204727z" fill-rule="evenodd"/><path stroke="#000000" stroke-width="4.0" stroke-linejoin="round" stroke-linecap="butt" d="m22.704725 255.6798l0 0c0 -29.936447 53.3733 -54.204727 119.2126 -54.204727l0 0c65.839294 0 119.212585 24.26828 119.212585 54.204727l0 0c0 29.936447 -53.37329 54.204727 -119.212585 54.204727l0 0c-65.8393 0 -119.2126 -24.26828 -119.2126 -54.204727z" fill-rule="evenodd"/><path fill="#000000" d="m22.704725 235.70866l0 0c0 -29.936447 53.3733 -54.204727 119.2126 -54.204727l0 0c65.839294 0 119.212585 24.26828 119.212585 54.204727l0 0c0 29.936447 -53.37329 54.204727 -119.212585 54.204727l0 0c-65.8393 0 -119.2126 -24.26828 -119.2126 -54.204727z" fill-rule="evenodd"/><path stroke="#000000" stroke-width="4.0" stroke-linejoin="round" stroke-linecap="butt" d="m22.704725 235.70866l0 0c0 -29.936447 53.3733 -54.204727 119.2126 -54.204727l0 0c65.839294 0 119.212585 24.26828 119.212585 54.204727l0 0c0 29.936447 -53.37329 54.204727 -119.212585 54.204727l0 0c-65.8393 0 -119.2126 -24.26828 -119.2126 -54.204727z" fill-rule="evenodd"/><g filter="url(#shadowFilter-p.1)"><use xlink:href="#p.1" transform="matrix(1.0 0.0 0.0 1.0 0.0 -36.0)"/></g><defs><filter id="shadowFilter-p.1" filterUnits="userSpaceOnUse"><feGaussianBlur in="SourceAlpha" stdDeviation="12.5" result="blur"/><feComponentTransfer in="blur" color-interpolation-filters="sRGB"><feFuncR type="linear" slope="0" intercept="0.77254903"/><feFuncG type="linear" slope="0" intercept="0.8"/><feFuncB type="linear" slope="0" intercept="0.0"/><feFuncA type="linear" slope="0.5" intercept="0"/></feComponentTransfer></filter></defs><g id="p.1"><path fill="#c5cc00" fill-opacity="0.5119" d="m42.216534 235.39108l29.117725 -149.5748l141.16612 0l29.117722 149.5748z" fill-rule="evenodd"/><path stroke="#000000" stroke-width="4.0" stroke-linejoin="round" stroke-linecap="butt" d="m42.216534 235.39108l29.117725 -149.5748l141.16612 0l29.117722 149.5748z" fill-rule="evenodd"/></g><g filter="url(#shadowFilter-p.2)"><use xlink:href="#p.2" transform="matrix(1.0 0.0 0.0 1.0 0.0 -36.0)"/></g><defs><filter id="shadowFilter-p.2" filterUnits="userSpaceOnUse"><feGaussianBlur in="SourceAlpha" stdDeviation="12.5" result="blur"/><feComponentTransfer in="blur" color-interpolation-filters="sRGB"><feFuncR type="linear" slope="0" intercept="0.77254903"/><feFuncG type="linear" slope="0" intercept="0.8"/><feFuncB type="linear" slope="0" intercept="0.0"/><feFuncA type="linear" slope="0.5" intercept="0"/></feComponentTransfer></filter></defs><g id="p.2"><path fill="#c5cc00" fill-opacity="0.5119" d="m42.216534 235.70866l0 0c0 -25.03981 44.63756 -45.338593 99.70079 -45.338593l0 0c55.063217 0 99.700775 20.298782 99.700775 45.338593l0 0c0 25.03981 -44.637558 45.338577 -99.700775 45.338577l0 0c-55.063232 0 -99.70079 -20.298767 -99.70079 -45.338577z" fill-rule="evenodd"/><path stroke="#000000" stroke-width="4.0" stroke-linejoin="round" stroke-linecap="butt" d="m42.216534 235.70866l0 0c0 -25.03981 44.63756 -45.338593 99.70079 -45.338593l0 0c55.063217 0 99.700775 20.298782 99.700775 45.338593l0 0c0 25.03981 -44.637558 45.338577 -99.700775 45.338577l0 0c-55.063232 0 -99.70079 -20.298767 -99.70079 -45.338577z" fill-rule="evenodd"/></g><g filter="url(#shadowFilter-p.3)"><use xlink:href="#p.3" transform="matrix(1.0 0.0 0.0 1.0 0.0 -28.999999737532814)"/></g><defs><filter id="shadowFilter-p.3" filterUnits="userSpaceOnUse"><feGaussianBlur in="SourceAlpha" stdDeviation="28.0" result="blur"/><feComponentTransfer in="blur" color-interpolation-filters="sRGB"><feFuncR type="linear" slope="0" intercept="0.77254903"/><feFuncG type="linear" slope="0" intercept="0.8"/><feFuncB type="linear" slope="0" intercept="0.0"/><feFuncA type="linear" slope="0.5" intercept="0"/></feComponentTransfer></filter></defs><g id="p.3"><path fill="#c5cc00" fill-opacity="0.5119" d="m71.49213 88.1811l0 0c0 -17.690506 31.530434 -32.031494 70.4252 -32.031494l0 0c38.89476 0 70.425186 14.340988 70.425186 32.031494l0 0c0 17.690514 -31.530426 32.0315 -70.425186 32.0315l0 0c-38.894768 0 -70.4252 -14.340988 -70.4252 -32.0315z" fill-rule="evenodd"/><path stroke="#000000" stroke-width="4.0" stroke-linejoin="round" stroke-linecap="butt" d="m71.49213 88.1811l0 0c0 -17.690506 31.530434 -32.031494 70.4252 -32.031494l0 0c38.89476 0 70.425186 14.340988 70.425186 32.031494l0 0c0 17.690514 -31.530426 32.0315 -70.425186 32.0315l0 0c-38.894768 0 -70.4252 -14.340988 -70.4252 -32.0315z" fill-rule="evenodd"/></g></g></svg>